<?xml version="1.0" encoding="UTF-8"?>
<svg version="1.1" xmlns="http://www.w3.org/2000/svg" width="204" height="192">
<path d="M0 0 C3.65981328 1.21993776 3.82771293 1.99326662 5.56640625 5.3125 C6.04762939 6.21540771 6.52885254 7.11831543 7.0246582 8.04858398 C7.532146 9.02255127 8.03963379 9.99651855 8.5625 11 C13.10720027 19.60998003 13.10720027 19.60998003 18.046875 27.99609375 C18.51407959 28.75083984 18.98128418 29.50558594 19.46264648 30.28320312 C20.34007772 31.6835383 21.23213197 33.07485317 22.14086914 34.45507812 C24.10644274 37.61675503 24.99703552 39.73556812 25.0390625 43.484375 C23.78036026 47.74314198 21.9170752 51.07444059 19.5625 54.8125 C18.6567545 56.29820116 17.75318248 57.7852291 16.8515625 59.2734375 C16.15015137 60.42537598 16.15015137 60.42537598 15.43457031 61.60058594 C13.00748516 65.66004695 10.72221681 69.79673831 8.4375 73.9375 C8.00832275 74.71262939 7.57914551 75.48775879 7.13696289 76.28637695 C5.01549965 80.11520877 5.01549965 80.11520877 3 84 C18.51 84 34.02 84 50 84 C52.31 88.29 54.62 92.58 57 97 C58.3861992 99.50535476 59.78054786 102.00624052 61.1875 104.5 C61.5477124 105.14090576 61.9079248 105.78181152 62.27905273 106.44213867 C64.56960177 110.5068203 66.89595494 114.54922953 69.2421875 118.58203125 C69.79237549 119.53207031 70.34256348 120.48210937 70.90942383 121.4609375 C71.9974862 123.33784911 73.09093945 125.21164761 74.19018555 127.08203125 C74.68558838 127.93796875 75.18099121 128.79390625 75.69140625 129.67578125 C76.13685791 130.43802002 76.58230957 131.20025879 77.04125977 131.9855957 C78 134 78 134 78 137 C61.83 137 45.66 137 29 137 C15.16949153 112.79661017 15.16949153 112.79661017 11 105 C10.30095979 103.70563273 9.60172538 102.41137033 8.90234375 101.1171875 C8.16377071 99.74494867 7.42548811 98.37255349 6.6875 97 C6.33719727 96.3517627 5.98689453 95.70352539 5.62597656 95.03564453 C4.2035916 92.37832612 2.9553081 89.8659243 2 87 C1.34 87 0.68 87 0 87 C-0.22945313 87.639375 -0.45890625 88.27875 -0.6953125 88.9375 C-2.47681021 93.11921918 -4.66899331 97.02918796 -6.875 101 C-7.35388672 101.86560547 -7.83277344 102.73121094 -8.32617188 103.62304688 C-12.01428394 110.26928245 -15.74371243 116.89208051 -19.5 123.5 C-20.0038623 124.38945312 -20.50772461 125.27890625 -21.02685547 126.1953125 C-21.50268066 127.02804688 -21.97850586 127.86078125 -22.46875 128.71875 C-22.88576172 129.45029297 -23.30277344 130.18183594 -23.73242188 130.93554688 C-24.15072266 131.61681641 -24.56902344 132.29808594 -25 133 C-25.42324051 133.6932135 -25.84648102 134.386427 -26.282547 135.10064697 C-28 137 -28 137 -30.18302917 137.48101807 C-31.02908218 137.47213562 -31.87513519 137.46325317 -32.74682617 137.45410156 C-33.70759567 137.45379944 -34.66836517 137.45349731 -35.6582489 137.45318604 C-36.69270645 137.43254089 -37.727164 137.41189575 -38.79296875 137.390625 C-40.38471672 137.38213531 -40.38471672 137.38213531 -42.00862122 137.37347412 C-45.40203735 137.35106143 -48.79440235 137.30085449 -52.1875 137.25 C-54.48631289 137.2299414 -56.78514231 137.21168952 -59.08398438 137.1953125 C-64.72301564 137.1511807 -70.36143273 137.08421972 -76 137 C-75.30446103 133.15734926 -74.32094818 130.4611518 -72.296875 127.10546875 C-71.45406982 125.68983643 -71.45406982 125.68983643 -70.59423828 124.24560547 C-69.98563965 123.23643066 -69.37704102 122.22725586 -68.75 121.1875 C-63.69417734 112.67428147 -58.8049508 104.10069618 -54.125 95.375 C-50.13468468 87.94244393 -46.09464044 80.55915876 -41.875 73.25390625 C-39.80602427 69.66337129 -37.77565684 66.05257338 -35.75 62.4375 C-31.6888891 55.19797364 -27.57195414 47.99101517 -23.44677734 40.7878418 C-20.39603933 35.45658236 -17.37256489 30.11130124 -14.375 24.75 C-9.71536219 16.42241011 -4.86601697 8.20822905 0 0 Z " fill="#AD265E" transform="translate(101,28)"/>
<path d="M0 0 C4.04131267 1.34710422 4.90288434 3.38428334 7 7 C7 7.99 7 8.98 7 10 C7.66 10 8.32 10 9 10 C9.39832031 10.80824219 9.79664062 11.61648437 10.20703125 12.44921875 C10.73683594 13.51785156 11.26664063 14.58648437 11.8125 15.6875 C12.33457031 16.74324219 12.85664062 17.79898438 13.39453125 18.88671875 C13.92433594 19.91410156 14.45414063 20.94148438 15 22 C15.32355469 22.87462891 15.64710938 23.74925781 15.98046875 24.65039062 C18.35417385 27.41206107 18.89008731 27.39031352 22.37963867 27.65942383 C24.22535785 27.7005913 26.07180644 27.71469819 27.91796875 27.70703125 C29.37654045 27.72971321 29.37654045 27.72971321 30.86457825 27.75285339 C33.97245224 27.79586512 37.07935753 27.80458147 40.1875 27.8125 C42.29364579 27.83563379 44.39976836 27.86099678 46.50585938 27.88867188 C51.67065906 27.95165755 56.83484994 27.98388754 62 28 C61.505 26.02 61.505 26.02 61 24 C60.34 24 59.68 24 59 24 C58.505 20.535 58.505 20.535 58 17 C61.29240875 19.79854744 63.03562946 23.20673275 65 27 C65 27.99 65 28.98 65 30 C48.83 30 32.66 30 16 30 C4 9 4 9 0 0 Z " fill="#94365C" transform="translate(114,135)"/>
<path d="M0 0 C1.22419811 3.67259434 0.54143712 4.57458418 -1 8 C-1.33 8.99 -1.66 9.98 -2 11 C-2.66 11 -3.32 11 -4 11 C-4.226875 11.66 -4.45375 12.32 -4.6875 13 C-6.10781916 16.2464438 -7.8553247 19.06993589 -9.78125 22.03515625 C-11.50063842 24.807119 -12.83915841 27.57779081 -14 30.625 C-15 33 -15 33 -17 35 C-17.391875 35.99 -17.78375 36.98 -18.1875 38 C-20.28809515 43.13238197 -23.92438847 50.46219423 -29 53 C-27.34862883 46.83072658 -24.10471108 41.61144723 -20.9375 36.125 C-19.75890277 34.06392319 -18.58051835 32.00272468 -17.40234375 29.94140625 C-16.82339355 28.93223145 -16.24444336 27.92305664 -15.64794922 26.88330078 C-13.40456286 22.95820554 -11.20245615 19.01064205 -9 15.0625 C-6.13684784 9.94917754 -3.17984565 4.92363197 0 0 Z " fill="#992654" transform="translate(57,106)"/>
<path d="M0 0 C3.78637387 1.26212462 4.03485429 2.35471121 5.8828125 5.8046875 C6.41003906 6.78050781 6.93726562 7.75632812 7.48046875 8.76171875 C8.02316406 9.78910156 8.56585938 10.81648438 9.125 11.875 C9.67542969 12.89464844 10.22585937 13.91429687 10.79296875 14.96484375 C14.83296131 22.49888393 14.83296131 22.49888393 16 26 C15.34 26 14.68 26 14 26 C12.64196324 24.28340568 11.50169742 22.46815118 10.31640625 20.62890625 C8.99986714 18.70046284 8.99986714 18.70046284 6 18 C6.12375 16.7315625 6.12375 16.7315625 6.25 15.4375 C5.92462977 10.96365938 4.40067871 8.75106048 2 5 C1.34 5 0.68 5 0 5 C-3.22903015 10.78653633 -6.41750021 16.59343282 -9.5703125 22.421875 C-10.04210937 23.27265625 -10.51390625 24.1234375 -11 25 C-11.51304688 25.93328125 -12.02609375 26.8665625 -12.5546875 27.828125 C-13.03164062 28.54484375 -13.50859375 29.2615625 -14 30 C-14.66 30 -15.32 30 -16 30 C-14.41515429 25.75487756 -12.39327586 21.79569107 -10.25 17.8125 C-9.89873047 17.15628662 -9.54746094 16.50007324 -9.18554688 15.82397461 C-6.28727868 10.44889691 -3.2225271 5.18778037 0 0 Z " fill="#952352" transform="translate(101,28)"/>
<path d="M0 0 C24.75 0.495 24.75 0.495 50 1 C50 1.33 50 1.66 50 2 C35.15 2.33 20.3 2.66 5 3 C4.67 3.99 4.34 4.98 4 6 C3.67 5.01 3.34 4.02 3 3 C2.34 3 1.68 3 1 3 C0.773125 3.639375 0.54625 4.27875 0.3125 4.9375 C-1.48565826 9.13320261 -3.73904021 13.03900556 -6 17 C-6.99 16.01 -7.98 15.02 -9 14 C-8.01 13.67 -7.02 13.34 -6 13 C-4.97549761 10.81862203 -4.97549761 10.81862203 -4 8 C-2.68 5.36 -1.36 2.72 0 0 Z " fill="#9D1C53" transform="translate(100,112)"/>
<path d="M0 0 C0.66 0.33 1.32 0.66 2 1 C1.18957164 2.48030272 0.37659652 3.95921142 -0.4375 5.4375 C-0.88996094 6.26121094 -1.34242187 7.08492187 -1.80859375 7.93359375 C-3 10 -3 10 -4 11 C-5.50418739 11.09311889 -7.01271356 11.11746028 -8.51977539 11.11352539 C-9.96115623 11.11341209 -9.96115623 11.11341209 -11.43165588 11.11329651 C-12.476436 11.10813522 -13.52121613 11.10297394 -14.59765625 11.09765625 C-15.66165146 11.0962413 -16.72564667 11.09482635 -17.82188416 11.09336853 C-21.23545083 11.08775064 -24.648953 11.07519511 -28.0625 11.0625 C-30.37044176 11.05748731 -32.67838455 11.052924 -34.98632812 11.04882812 C-40.65757426 11.0377754 -46.32878253 11.02101987 -52 11 C-51.625 8.5625 -51.625 8.5625 -51 6 C-50.34 5.67 -49.68 5.34 -49 5 C-49 6.32 -49 7.64 -49 9 C-27.22 9.495 -27.22 9.495 -5 10 C-4.34 8.35 -3.68 6.7 -3 5 C-2.02763513 3.3170608 -1.03435556 1.64556566 0 0 Z " fill="#8D3C5D" transform="translate(77,154)"/>
<path d="M0 0 C4.04131267 1.34710422 4.90288434 3.38428334 7 7 C7 7.99 7 8.98 7 10 C7.66 10 8.32 10 9 10 C9.39832031 10.80824219 9.79664062 11.61648437 10.20703125 12.44921875 C10.73683594 13.51785156 11.26664063 14.58648437 11.8125 15.6875 C12.33457031 16.74324219 12.85664062 17.79898438 13.39453125 18.88671875 C14.94289768 21.98369662 14.94289768 21.98369662 16.69921875 24.76953125 C18 27 18 27 18 29 C14.46919592 27.82306531 14.22578676 27.18114084 12.44140625 24.0625 C11.97283203 23.24910156 11.50425781 22.43570313 11.02148438 21.59765625 C10.54001953 20.74042969 10.05855469 19.88320312 9.5625 19 C9.08490234 18.17371094 8.60730469 17.34742188 8.11523438 16.49609375 C5.05641823 11.13372471 2.39093433 5.6908189 0 0 Z " fill="#972455" transform="translate(114,135)"/>
<path d="M0 0 C0.99895707 2.59609203 1.12762475 3.68494309 0.06640625 6.3046875 C-0.42988281 7.15289062 -0.92617187 8.00109375 -1.4375 8.875 C-1.98535156 9.82761719 -2.53320312 10.78023437 -3.09765625 11.76171875 C-3.72542969 12.83035156 -4.35320312 13.89898437 -5 15 C-5.72987221 16.27619766 -6.45766264 17.55358769 -7.18359375 18.83203125 C-9.11201643 22.22738836 -11.05311933 25.61519478 -13 29 C-13.33 27.68 -13.66 26.36 -14 25 C-13.34 25 -12.68 25 -12 25 C-11.9175 24.360625 -11.835 23.72125 -11.75 23.0625 C-10.20313864 16.74614944 -7.5621665 10.71423871 -3 6 C-2.34 6 -1.68 6 -1 6 C-1.020625 5.195625 -1.04125 4.39125 -1.0625 3.5625 C-1 1 -1 1 0 0 Z " fill="#992252" transform="translate(125,68)"/>
<path d="M0 0 C0.99 0.33 1.98 0.66 3 1 C2.59007813 1.58007812 2.18015625 2.16015625 1.7578125 2.7578125 C-1.26080097 7.13407987 -3.34994506 10.92290788 -5 16 C-5.99 16.33 -6.98 16.66 -8 17 C-8.103125 17.721875 -8.20625 18.44375 -8.3125 19.1875 C-9.06793947 22.27793421 -10.15531315 24.41743841 -12 27 C-12.66 27 -13.32 27 -14 27 C-12.35526763 20.81663908 -9.07446913 15.60344134 -5.875 10.125 C-5.31167969 9.15046875 -4.74835938 8.1759375 -4.16796875 7.171875 C-2.78349637 4.77838038 -1.39406459 2.3879162 0 0 Z " fill="#992456" transform="translate(81,63)"/>
<path d="M0 0 C-1.65770333 4.49324849 -3.84982162 8.61186146 -6.125 12.8125 C-6.49753906 13.50537109 -6.87007813 14.19824219 -7.25390625 14.91210938 C-8.16690377 16.60934836 -9.08312716 18.30485138 -10 20 C-10.66 19.67 -11.32 19.34 -12 19 C-10.66109105 14.25295916 -8.58478461 10.28365072 -6.12109375 6.05078125 C-4.87037269 3.90708975 -4.87037269 3.90708975 -4 1 C-2 0 -2 0 0 0 Z " fill="#9B2254" transform="translate(93,129)"/>
<path d="M0 0 C0.33 0 0.66 0 1 0 C1.49462092 4.15481571 1.24199869 5.66389071 -1.25 9.125 C-5.79591837 13.87755102 -5.79591837 13.87755102 -8 16 C-6.44584521 10.0942118 -3.40465533 5.02261107 0 0 Z " fill="#992654" transform="translate(66,90)"/>
<path d="M0 0 C0.66 0 1.32 0 2 0 C3.4606285 2.64738916 4 3.89448334 4 7 C4.99 7.33 5.98 7.66 7 8 C8.25 10.9375 8.25 10.9375 9 14 C8.67 14.66 8.34 15.32 8 16 C0 3.54150198 0 3.54150198 0 0 Z " fill="#912752" transform="translate(105,118)"/>
<path d="M0 0 C0.66 0.99 1.32 1.98 2 3 C-0.31 6.96 -2.62 10.92 -5 15 C-6 11 -6 11 -5.0390625 8.7109375 C-4.57242188 7.94007812 -4.10578125 7.16921875 -3.625 6.375 C-3.16351563 5.59898438 -2.70203125 4.82296875 -2.2265625 4.0234375 C-1.82179688 3.35570313 -1.41703125 2.68796875 -1 2 C-0.67 1.34 -0.34 0.68 0 0 Z " fill="#962352" transform="translate(109,96)"/>
<path d="M0 0 C2.97246802 2.54782974 4.41535288 5.45340883 6 9 C6 9.66 6 10.32 6 11 C5.34 11 4.68 11 4 11 C3.67 9.68 3.34 8.36 3 7 C2.34 7 1.68 7 1 7 C0.67 4.69 0.34 2.38 0 0 Z " fill="#942654" transform="translate(172,152)"/>
<path d="M0 0 C0.66 0.33 1.32 0.66 2 1 C1.21516341 2.48280196 0.42190666 3.9611498 -0.375 5.4375 C-0.81585938 6.26121094 -1.25671875 7.08492187 -1.7109375 7.93359375 C-3 10 -3 10 -5 11 C-4.46884894 6.48521602 -2.63379708 3.65333143 0 0 Z " fill="#902350" transform="translate(77,154)"/>
<path d="M0 0 C1 3 1 3 0.22265625 4.82421875 C-0.8515625 6.54947917 -1.92578125 8.27473958 -3 10 C-3.99 9.01 -4.98 8.02 -6 7 C-5.01 6.67 -4.02 6.34 -3 6 C-1.84478498 3.52869082 -1.84478498 3.52869082 -1 1 C-0.67 0.67 -0.34 0.34 0 0 Z " fill="#93204E" transform="translate(97,119)"/>
<path d="M0 0 C4.02550319 1.3418344 4.88285636 3.4227573 7 7 C7 7.66 7 8.32 7 9 C6.01 9 5.02 9 4 9 C2.68 6.03 1.36 3.06 0 0 Z " fill="#931951" transform="translate(114,135)"/>
<path d="M0 0 C0.99 0.33 1.98 0.66 3 1 C1.02 3.97 -0.96 6.94 -3 10 C-4 7 -4 7 -3.22265625 5.17578125 C-2.1484375 3.45052083 -1.07421875 1.72526042 0 0 Z " fill="#931E51" transform="translate(81,63)"/>
<path d="M0 0 C3.0916909 2.52956528 3.90931332 5.22454612 5 9 C4.01 8.67 3.02 8.34 2 8 C1.26953125 6.15234375 1.26953125 6.15234375 0.8125 3.9375 C0.65394531 3.20402344 0.49539062 2.47054687 0.33203125 1.71484375 C0.22246094 1.14894531 0.11289063 0.58304688 0 0 Z " fill="#972C57" transform="translate(167,143)"/>
</svg>
